<svg width="102" height="16" viewBox="0 0 102 16" fill="none" xmlns="http://www.w3.org/2000/svg">
<g id="&#208;&#184;&#208;&#186;&#208;&#190;&#208;&#189;&#208;&#186;&#208;&#184;">
<path id="Vector" d="M6 9.2H8.14286L9 6H6V4.4C6 3.576 6 2.8 7.71429 2.8H9V0.112C8.72057 0.0776001 7.66543 0 6.55114 0C4.224 0 2.57143 1.3256 2.57143 3.76V6H0V9.2H2.57143V16H6V9.2Z" fill="#1F1E25"/>
<path id="Vector_2" d="M32 0C34.1736 0 34.4448 0.00799995 35.2976 0.048C36.1496 0.088 36.7296 0.2216 37.24 0.42C37.768 0.6232 38.2128 0.8984 38.6576 1.3424C39.0644 1.74232 39.3792 2.22607 39.58 2.76C39.7776 3.2696 39.912 3.8504 39.952 4.7024C39.9896 5.5552 40 5.8264 40 8C40 10.1736 39.992 10.4448 39.952 11.2976C39.912 12.1496 39.7776 12.7296 39.58 13.24C39.3797 13.7742 39.0649 14.2581 38.6576 14.6576C38.2576 15.0643 37.7738 15.379 37.24 15.58C36.7304 15.7776 36.1496 15.912 35.2976 15.952C34.4448 15.9896 34.1736 16 32 16C29.8264 16 29.5552 15.992 28.7024 15.952C27.8504 15.912 27.2704 15.7776 26.76 15.58C26.2259 15.3796 25.742 15.0648 25.3424 14.6576C24.9355 14.2577 24.6207 13.774 24.42 13.24C24.2216 12.7304 24.088 12.1496 24.048 11.2976C24.0104 10.4448 24 10.1736 24 8C24 5.8264 24.008 5.5552 24.048 4.7024C24.088 3.8496 24.2216 3.2704 24.42 2.76C24.6202 2.22574 24.935 1.74186 25.3424 1.3424C25.7421 0.935385 26.2259 0.620583 26.76 0.42C27.2704 0.2216 27.8496 0.088 28.7024 0.048C29.5552 0.0104 29.8264 0 32 0ZM32 4C30.9391 4 29.9217 4.42143 29.1716 5.17157C28.4214 5.92172 28 6.93913 28 8C28 9.06087 28.4214 10.0783 29.1716 10.8284C29.9217 11.5786 30.9391 12 32 12C33.0609 12 34.0783 11.5786 34.8284 10.8284C35.5786 10.0783 36 9.06087 36 8C36 6.93913 35.5786 5.92172 34.8284 5.17157C34.0783 4.42143 33.0609 4 32 4ZM37.2 3.8C37.2 3.53478 37.0946 3.28043 36.9071 3.09289C36.7196 2.90536 36.4652 2.8 36.2 2.8C35.9348 2.8 35.6804 2.90536 35.4929 3.09289C35.3054 3.28043 35.2 3.53478 35.2 3.8C35.2 4.06522 35.3054 4.31957 35.4929 4.50711C35.6804 4.69464 35.9348 4.8 36.2 4.8C36.4652 4.8 36.7196 4.69464 36.9071 4.50711C37.0946 4.31957 37.2 4.06522 37.2 3.8ZM32 5.6C32.6365 5.6 33.247 5.85286 33.6971 6.30294C34.1471 6.75303 34.4 7.36348 34.4 8C34.4 8.63652 34.1471 9.24697 33.6971 9.69706C33.247 10.1471 32.6365 10.4 32 10.4C31.3635 10.4 30.753 10.1471 30.3029 9.69706C29.8529 9.24697 29.6 8.63652 29.6 8C29.6 7.36348 29.8529 6.75303 30.3029 6.30294C30.753 5.85286 31.3635 5.6 32 5.6Z" fill="#1F1E25"/>
<path id="Vector_3" d="M70.9992 3.54324C70.4 3.80812 69.7645 3.98209 69.1138 4.05937C69.7996 3.64947 70.313 3.00438 70.5581 2.2443C69.9144 2.62708 69.2088 2.89534 68.4733 3.04045C67.9793 2.51223 67.3245 2.16191 66.6106 2.04395C65.8968 1.926 65.164 2.04702 64.5261 2.3882C63.8882 2.72937 63.381 3.2716 63.0833 3.93057C62.7856 4.58954 62.7141 5.32833 62.8799 6.0321C61.5747 5.96673 60.2977 5.62777 59.1321 5.03724C57.9664 4.4467 56.9381 3.6178 56.1138 2.60433C55.822 3.10512 55.6687 3.67441 55.6695 4.2539C55.6695 5.39126 56.2488 6.39606 57.1295 6.98435C56.6083 6.96795 56.0986 6.8273 55.6429 6.57411V6.6149C55.643 7.37238 55.9053 8.1065 56.3853 8.69279C56.8652 9.27907 57.5333 9.68144 58.2763 9.83167C57.7925 9.96269 57.2852 9.98201 56.7928 9.88815C57.0023 10.5402 57.4105 11.1104 57.9604 11.519C58.5103 11.9276 59.1744 12.1541 59.8595 12.1668C59.1786 12.7012 58.3989 13.0963 57.5651 13.3294C56.7312 13.5625 55.8596 13.6291 55 13.5253C56.5005 14.4897 58.2473 15.0017 60.0314 15C66.0699 15 69.3721 10.0011 69.3721 5.66579C69.3721 5.5246 69.3681 5.38184 69.3619 5.24222C70.0046 4.778 70.5593 4.20293 71 3.54403L70.9992 3.54324Z" fill="#1F1E25"/>
<path id="Vector_4" d="M101.634 4.02963C102 5.4775 102 8.5 102 8.5C102 8.5 102 11.5225 101.634 12.9704C101.431 13.7707 100.837 14.4004 100.084 14.6132C98.7168 15 94 15 94 15C94 15 89.2856 15 87.916 14.6132C87.16 14.3971 86.5664 13.7683 86.3656 12.9704C86 11.5225 86 8.5 86 8.5C86 8.5 86 5.4775 86.3656 4.02963C86.5688 3.22931 87.1632 2.59962 87.916 2.38675C89.2856 2 94 2 94 2C94 2 98.7168 2 100.084 2.38675C100.84 2.60287 101.434 3.23175 101.634 4.02963ZM92.4 11.3438L97.2 8.5L92.4 5.65625V11.3438Z" fill="#1F1E25"/>
</g>
</svg>
