<svg width="24" height="22" viewBox="0 0 24 22" fill="none" xmlns="http://www.w3.org/2000/svg">
<path d="M6.93301 0.207031C3.12739 0.207031 0 3.06054 0 6.54136V15.4156C0 18.8926 3.12321 21.7499 6.93301 21.7499H16.6459C20.4516 21.7499 23.5789 18.8964 23.5789 15.4156V6.54136C23.5789 3.06437 20.4557 0.207031 16.6459 0.207031H6.93301ZM6.93301 2.16547H16.6459C19.2961 2.16547 21.4354 4.12009 21.4354 6.54136V15.4156C21.4354 17.8368 19.2961 19.7914 16.6459 19.7914H6.93301C4.28289 19.7914 2.14354 17.8368 2.14354 15.4156V6.54136C2.14354 4.12009 4.28289 2.16547 6.93301 2.16547ZM18.1196 4.30752C17.5795 4.30752 17.1483 4.7015 17.1483 5.19494C17.1483 5.68837 17.5795 6.08236 18.1196 6.08236C18.6597 6.08236 19.0909 5.68837 19.0909 5.19494C19.0909 4.7015 18.6597 4.30752 18.1196 4.30752ZM11.7895 5.10314C8.25179 5.10314 5.35885 7.74627 5.35885 10.9785C5.35885 14.2107 8.25179 16.8538 11.7895 16.8538C15.3272 16.8538 18.2201 14.2107 18.2201 10.9785C18.2201 7.74627 15.3272 5.10314 11.7895 5.10314ZM11.7895 7.06158C14.1716 7.06158 16.0766 8.80199 16.0766 10.9785C16.0766 13.1549 14.1716 14.8953 11.7895 14.8953C9.4073 14.8953 7.50239 13.1549 7.50239 10.9785C7.50239 8.80199 9.4073 7.06158 11.7895 7.06158Z" fill="white"/>
</svg>
