<svg width="46" height="43" viewBox="0 0 46 43" fill="none" xmlns="http://www.w3.org/2000/svg">
<path d="M13.8352 11.8369C12.2687 11.8369 11 10.7554 11 9.41977C11 8.08296 12.2687 7 13.8352 7C15.4002 7 16.6689 8.08296 16.6689 9.41977C16.6689 10.7554 15.4002 11.8369 13.8352 11.8369ZM11.6495 27.3862V13.6785H16.7339V27.3862H11.6495ZM23.87 19.7622V27.2111H18.7939V13.5034H23.87V15.3488C25.2057 13.7367 26.3663 13.0713 28.4705 13.0713C30.5765 13.0713 34 14.0047 34 19.4186V27.2111H28.9383V19.7246C28.9383 18.1902 28.4705 16.653 26.5681 16.653C24.6656 16.653 23.87 18.1902 23.87 19.7622Z" fill="white"/>
</svg>
