<svg width="23" height="19" viewBox="0 0 23 19" fill="none" xmlns="http://www.w3.org/2000/svg">
<path d="M22.2639 4.07729C22.0792 2.33548 21.6936 1.82782 21.4205 1.5915C20.9867 1.22388 20.1995 1.09259 19.1472 1.01381C17.4603 0.891275 14.5926 0.8125 11.5 0.8125C8.39935 0.8125 5.53968 0.882523 3.8528 1.01381C2.80051 1.09259 2.0133 1.22388 1.57953 1.5915C1.30641 1.82782 0.928872 2.33548 0.736086 4.07729C0.462971 6.58933 0.462971 12.3137 0.736086 14.8257C0.928872 16.5675 1.30641 17.0752 1.57953 17.3115C2.0133 17.6791 2.80051 17.8104 3.8528 17.8892C5.53968 18.0117 8.39935 18.0905 11.5 18.0905C14.6006 18.0905 17.4603 18.0117 19.1472 17.8892C20.1995 17.8104 20.9867 17.6791 21.4205 17.3115C21.6936 17.0839 22.0711 16.5675 22.2639 14.8257C22.537 12.3137 22.537 6.58933 22.2639 4.07729ZM8.84918 13.2064V5.6878L15.4682 9.44274L8.84918 13.2064Z" fill="white"/>
</svg>
